<svg width="953" height="937" viewBox="0 0 953 937" fill="none" xmlns="http://www.w3.org/2000/svg">
<path d="M133.275 695.434C129.533 703.25 120.925 718.126 111.386 723.891C114.014 728.829 117.607 732.336 120.55 737.15L120.916 737.75C125.507 745.262 129.977 752.575 133.939 760.498C147.819 788.258 174.964 804.997 198.505 824.124C223.069 844.082 255.571 849.392 284.317 860.418C309.116 869.93 335.291 883.545 362.438 883.545C388.613 883.545 412.265 878.858 437.683 872.59C452.883 868.842 469.671 858.112 485.541 859.699C496.106 860.756 506.498 864.392 517.132 864.623C526.864 864.835 536.634 865.619 546.455 865.619C558.146 865.619 571.099 866.622 582.584 864.125C587.733 863.006 591.899 863.744 595.475 859.146C595.925 858.568 589.137 848.447 588.061 846.919C586.077 844.099 582.359 843.039 580.703 839.726C578.976 836.273 577.749 833.366 575.336 830.21C572.374 826.337 570.18 822.896 566.152 820.306C559.26 815.876 555.291 803.187 552.763 795.963C550.234 788.739 553.28 776.622 553.427 769C553.563 761.933 551.97 755.284 553.427 748.326C555.474 738.546 557.674 729.415 558.24 719.224C558.561 713.449 559.837 704.166 562.722 698.809C565.224 694.162 556.839 694.323 553.759 693.553C545.483 691.484 536.545 691.25 528.087 690.122C518.274 688.814 508.281 688.636 498.487 687.411C491.218 686.503 483.858 684.988 476.522 684.424C463.177 683.397 451.038 681.741 438.679 676.18C434.255 674.189 430.792 671.895 427.171 668.932C424.492 666.74 421.747 663.851 418.982 661.906C417.435 660.817 415.015 660.514 413.782 658.973C406.307 649.63 417.546 628.367 422.745 619.083C427.284 610.977 431.254 602.148 436.908 594.739C443.85 585.643 453.378 579.063 462.137 572.055C476.786 560.336 496.548 558.271 512.872 549.482C517.789 546.834 514.508 538.245 514.366 532.994C514.274 529.591 512.846 526.425 512.429 523.091C512.153 520.879 512.815 518.438 512.153 516.285C510.262 510.139 506.231 512.081 499.926 512.081H478.514C468.577 512.081 459.104 511.313 449.634 508.097C442.579 505.701 436.43 500.928 429.495 498.36C414.756 492.901 400.635 482.325 388.387 472.799C383.903 469.311 378.036 465.966 372.951 463.282C367.816 460.572 364.328 454.829 359.008 452.549C352.706 449.848 340.937 449.714 334.166 450.391C324.624 451.345 315.12 453.442 305.728 455.26C295.351 457.269 285.986 461.775 275.907 464.5C268.887 466.397 261.785 469.83 255.99 474.016C250.059 478.299 242.34 480.172 236.515 484.749C229.63 490.158 222.075 494.813 214.66 499.632C203.147 507.116 192.281 515.69 184.729 527.24C180.992 532.955 181.039 540.441 176.762 545.941C172.501 551.418 169.641 558.272 166.36 564.364C163.454 569.762 161.41 578.035 160.053 584.005C158.144 592.406 156.644 601.198 155.073 609.677C153.738 616.888 152.094 624.192 152.916 631.587C153.959 640.975 156.284 649.492 153.358 658.918C149.131 672.538 139.326 682.792 133.275 695.434Z" fill="white"/>
<path d="M826.71 153.093C826.71 153.093 859.676 152.842 869.5 144C898.418 144 903.148 163.583 912 185C912 185 941.607 235.5 941.607 281C937.683 286.046 947.384 343.178 941.607 345.264C933.125 348.327 911.4 355.96 902.5 357.5C869.907 363.141 847.5 363 814.676 366.926C806.004 370.764 809.689 379.404 811.382 385.5C809.801 388.088 814.026 445.304 811.382 445.5C799.446 446.384 781.069 449 769 449C758.444 449 739.825 451.911 730.5 445.5C723.442 440.648 720.934 431.531 715.297 425.894C708.998 419.595 707.671 411.143 703 403.5C691.549 384.762 688.49 365.169 682.234 345.01C672.576 313.888 661 281.882 661 248C661 232.066 655 202 655 202C655 191.607 653.302 180.087 656.835 170.195L693.065 136.625L733.5 127C740.472 133.972 753.754 151.091 758.621 159.744C762.419 166.496 770 169.027 770 177C777.143 174.619 789.628 174.055 795.674 169.688C805.385 162.675 826.71 153.093 826.71 153.093Z" fill="#EC7AA1"/>
<path d="M562.72 706.907C567.188 694.619 592.901 673.074 592.901 658.985C600.299 651.587 607.675 642.144 615.944 634.31C626.779 624.046 640.228 621.463 654.587 621.463C673.055 621.463 672.829 638.315 686.093 647.158C691.975 651.079 695.235 651.701 699.552 657.252C702.722 661.327 707.733 662.763 712.297 663.777C717.076 664.839 723.578 664.651 727.898 666.938C731.86 669.036 732.44 673.374 735.239 676.522C738.454 680.139 738.622 686.247 741.764 690.287L741.822 690.361C745.335 694.878 748.545 699.005 752.674 703.134C756.948 707.409 760.618 717.135 767.357 718.633C775.054 720.343 777.882 720.716 784.792 725.158C793.7 730.884 786.954 752.047 786.627 760.539C786.43 765.666 780.304 773.471 777.451 777.464C772.38 784.563 764.405 792.717 761 800.5C718.245 832.779 699.5 843 669.576 859.645C649.965 863.056 627.2 866.123 607.685 861.786C596.309 859.258 591.757 844.238 580 843C570.9 842.042 563.858 823.555 560.5 816C554.672 802.887 553.527 793.052 551.708 778.5C550.189 766.347 548.627 754.574 553.5 743C558.521 731.075 558.306 719.046 562.72 706.907Z" fill="#FFEE7D"/>
<path d="M174.5 871C164.837 870.071 159.565 800.823 156 793.5C160.843 796.342 210.991 835.883 268 857.5C322.321 878.098 383.745 880.781 383.576 884.797C383.367 889.766 397.029 902.129 394 906C388.616 912.88 304.116 918.956 300.5 926.5C224.5 889 173 888.5 174.5 871Z" fill="#FFEE7D"/>
<path d="M380 462C370.337 461.071 367.565 440.823 364 433.5C368.843 436.342 406.991 411.883 464 433.5C561 524.5 504.615 506.956 501 514.5C425 502.5 378.5 479.5 380 462Z" fill="#FFEE7D"/>
<path d="M619.324 127.222C626.34 130.609 635.908 138.316 642.5 142.511C650.097 144.144 658.176 145.887 663.603 150.229C664.62 151.043 665.109 152.546 665.233 154.487C665.765 162.861 659.495 179.388 659.495 183.918C659.495 193.218 661.138 201.609 661.138 211.033C661.138 230.142 664.425 248.471 664.425 267.273C664.425 292.736 673.615 313.748 677.5 339C679.926 354.769 685.529 374.736 693.64 388.151C702.588 402.949 713.578 416.596 725.138 429.6C729.26 434.237 731.441 444.372 736.732 447.312C742.504 450.518 749.292 449.32 755.722 449.32C762.479 449.32 764.67 448.137 764.67 455.072C764.67 460.973 764.462 466.709 763.848 472.601C761.003 499.916 763.161 529.378 752.253 555.043C747.586 566.023 740.838 578.427 738.102 589.919C733.754 608.182 717 621.151 717 640C717 641.964 703.932 652 717 652C715.814 656.149 703.003 654.14 698.935 653.462C691.514 652.225 682.039 651.573 678.393 643.875C675.563 637.901 675.84 626.992 667.346 626.803C659.235 626.623 649.589 625.327 641.966 628.446C585 643.875 599.135 675.135 568.5 691.259C550.531 700.716 521.746 695.541 504.289 691.259C479.377 685.149 477.309 685.354 452.431 679.5C413.033 670.23 419.934 635.034 437 615C444.805 605.838 442.788 594.965 452.431 588C460.565 582.126 470.232 571.79 478.908 566.729C489.121 560.771 509.382 553.174 509.949 538.427C510.172 532.625 510.359 526.474 509.127 520.806C508.081 515.993 516.647 508.441 514 504.281C503.972 488.523 500.958 470.066 491 454.25C483.532 442.389 464.707 434.721 452.431 430C446.697 427.794 444.994 426.313 438.919 426.313C428.485 426.313 418.198 424.67 407.696 424.67C395.983 424.67 370.826 421.174 362 430C358.189 433.811 360.837 446.816 360.403 452.242C360.119 455.797 352.919 454.25 350.178 454.25C322.762 454.25 292.966 460.321 266.641 468.219C247.756 473.884 218.786 493.026 205.5 504.281C192.489 522.77 178.618 532.746 172.5 554.5C148.901 586.362 164.333 623.578 148.41 662.5C144.811 671.297 134.103 682.145 131.977 691.259C130.765 696.453 121.522 715.585 114.721 717.096C99.0499 720.579 98.2207 698.724 95.8226 687C91.0747 663.788 90.8191 658.5 90.8191 632.081C84.8194 615.847 87.5752 597.22 90.8191 581C94.3727 563.232 95.8226 538.23 95.8226 519.619C95.8226 510.058 99.0574 502.516 98 493C98 493 102.305 468.219 95.7313 468.219C92.7375 454.747 92.0177 452.66 84.3191 442C72.9498 426.258 52.2022 408.005 42.5048 391.255C33.3815 375.496 27.0801 372.757 18.5 356.5C15.0565 349.975 14.2112 338.539 12.0114 331.5C10.0393 325.189 8 314.532 8 308C8 296.226 9.05029 288.3 18.5 282C29.9327 274.378 42.4115 277.5 55.5 277.5C70.706 277.5 83.5399 279.869 98 284C105.035 286.01 112.894 287.64 119 291.558C127.361 296.921 139.02 295.001 148.41 298.131C157.386 301.123 172.759 310.209 181 305.5C182.97 304.374 187.251 295.544 188.5 293.5C195.928 281.344 208.002 271.497 214.5 258.5C223.001 241.499 235.797 232.846 249 220C262.07 207.283 274.632 186.347 290.561 177.344C298.255 172.996 306.251 168.327 313.476 163.376C323.886 156.243 333.16 145.576 343.878 139.547C358.234 131.472 371.686 125.022 387.062 119.005C406.247 111.498 426.798 109.253 445.858 101.841C459.071 96.7026 474.007 100.015 488 100.015C497.975 100.015 506.346 97.7351 515.792 100.015C525.613 102.386 535.623 103.46 545.281 106.68C560.521 111.76 576.841 115.733 592.482 119.37C601.096 121.373 619.324 127.222 619.324 127.222Z" fill="#65AADD"/>
<path d="M357 486C366.895 486 388 515 403 545.5C425.833 541.17 471.5 536.825 471.5 545.5C471.5 559 455.667 590.166 437.5 600.5C419.333 610.833 400 554 400 554C360.5 559.5 344.5 558.538 335.5 556C316 550.5 344.5 486 357 486Z" fill="#EC7AA1" stroke="#EC7AA1" stroke-width="6"/>
<path d="M389.5 882.5C392.833 888.167 398.5 900.8 394.5 906C389.5 912.5 384.5 917 335.5 911.5C327.9 915.9 307.5 928 297 928C287.5 927 255.2 911.2 234 894C223.167 900.333 188.5 897.5 180 887C180 887 151.125 848.778 150 787.825M389.5 882.5C273.5 882.5 181.5 814.5 150 780.5M389.5 882.5C390.833 884.5 412.8 882.3 490 857.5C510 861.167 561.5 866.3 607.5 857.5M150 780.5C118 759 63.6001 668.5 102 484.5C98.8334 472.167 83.2 437.9 46 399.5C8.80001 361.1 6.66663 313.667 10.5 292.5C18.5 276 55.9 275.1 175.5 313.5C217.5 241.333 333 105.5 470 102.5C487.5 102.5 568 91.5 667.5 158.5M150 780.5C149.954 782.976 149.956 785.418 150 787.825M150 780.5V787.825M607.5 857.5C629.167 862.167 682 864 720 834C767.5 796.5 792 771.594 792 741C792 715.5 759.5 726 753.5 713C747.5 700 748.5 677 738.5 667C724.5 653 716.5 660.5 684.5 653C651.5 604.5 624.5 627.5 601 653C582.2 673.4 565.5 710.167 559.5 726C537.5 812.5 580.167 845.5 607.5 857.5ZM791.5 97C789.42 122.033 781.434 178.19 770.13 180.55C742.641 137.333 730.271 124.815 727.5 124C707.1 126 673.333 156.167 659 171C659 219 662.5 363.5 734.5 445.5H806.5C809.833 446.333 816 433.085 812 370.685M791.5 97C827.5 118.5 840.5 106.5 851.5 91.5C857 77 858.9 48.5 822.5 50.5C822.5 50.5 838.5 14 796.5 9C758.5 9 772 50.5 772 50.5C758.5 48.8333 736.756 56.6311 739.5 80.5C744.5 124 791.5 97 791.5 97ZM727.5 158.5C715.949 202.589 709.494 298.156 758 374.748M790.5 414.5C777.618 402.175 766.886 388.78 758 374.748M727.5 204.5C769.6 180.387 850.797 139.755 879.5 145.297M758 374.748C804.153 372.23 881.409 365.127 919.5 353.211M879.5 145.297C883.75 146.118 886.849 147.951 888.5 151C945.3 198.6 947.5 293.833 941.5 335.5C944.709 342.275 935.606 348.174 919.5 353.211M879.5 145.297C834 166 841.5 308.5 919.5 353.211" stroke="black" stroke-width="18" stroke-linecap="round"/>
<path d="M158.5 599.5L149.688 597.672L149.61 598.045L149.565 598.423L158.5 599.5ZM455 431.5L452.461 440.134L455 431.5ZM545.116 546.931C550.048 546.314 553.547 541.816 552.931 536.884C552.314 531.952 547.816 528.453 542.884 529.069L545.116 546.931ZM418 642L409.443 639.21L409.292 639.675L409.192 640.153L418 642ZM719.797 624.125L711.995 619.638L719.797 624.125ZM366.336 429.987L364.712 421.135L366.336 429.987ZM362.449 438.204L370.349 433.892L362.449 438.204ZM112.14 730.212C136.316 715.667 157.341 684.36 167.435 600.577L149.565 598.423C139.659 680.64 119.684 704.667 102.86 714.788L112.14 730.212ZM167.312 601.328C174.075 568.721 188.288 533.999 218.059 507.399C247.725 480.892 293.907 461.5 366.5 461.5V443.5C290.593 443.5 239.775 463.858 206.066 493.976C172.462 524.001 156.925 562.779 149.688 597.672L167.312 601.328ZM367.96 438.839C388.276 435.113 424.505 431.912 452.461 440.134L457.539 422.866C425.502 413.443 385.914 417.245 364.712 421.135L367.96 438.839ZM452.461 440.134C470.324 445.388 484.186 461.481 494.177 478.495C499.059 486.809 502.772 494.925 505.398 501.254C506.708 504.411 507.742 507.109 508.521 509.171C509.138 510.804 509.926 512.976 510.45 514.025L526.55 505.975C526.574 506.024 526.331 505.383 525.36 502.812C524.551 500.669 523.44 497.768 522.024 494.355C519.197 487.543 515.129 478.628 509.698 469.38C499.064 451.269 482.176 430.112 457.539 422.866L452.461 440.134ZM510.45 514.025C509.353 511.83 509.262 509.357 510.022 507.2C510.67 505.361 511.752 504.243 512.281 503.758C512.864 503.223 513.376 502.914 513.613 502.779C513.879 502.628 514.069 502.546 514.132 502.52C514.248 502.471 513.835 502.639 512.594 502.887C510.285 503.35 506.479 503.826 501.438 504.04C491.406 504.464 477.203 503.815 461.467 500.379C430.033 493.517 393.193 475.751 370.349 433.892L354.549 442.515C380.612 490.272 422.774 510.356 457.628 517.965C475.034 521.765 490.796 522.506 502.199 522.023C507.875 521.783 512.654 521.233 516.129 520.537C517.779 520.206 519.558 519.762 521.082 519.124C521.716 518.858 523.129 518.232 524.445 517.026C525.124 516.403 526.306 515.15 527 513.18C527.806 510.892 527.708 508.292 526.55 505.975L510.45 514.025ZM516.544 501.215C509.359 502.815 505.568 508.226 503.877 513.295C502.279 518.084 502.146 523.484 502.458 528.145C503.09 537.591 505.831 547.513 507.573 552.16L524.427 545.84C523.169 542.487 520.91 534.301 520.417 526.943C520.167 523.202 520.44 520.525 520.952 518.991C521.37 517.737 521.391 518.577 520.456 518.785L516.544 501.215ZM542.884 529.069C508.99 533.306 434.94 561.019 409.443 639.21L426.557 644.79C449.06 575.781 515.01 550.694 545.116 546.931L542.884 529.069ZM409.192 640.153C405.594 657.313 418.115 683.562 465.174 693.313L468.826 675.687C427.085 667.038 426.073 647.354 426.808 643.847L409.192 640.153ZM465.174 693.313C510.332 702.67 555.758 704.671 573.089 704.5L572.911 686.5C556.576 686.662 512.468 684.73 468.826 675.687L465.174 693.313ZM728 654.5V627.125H710V654.5H728ZM727.599 628.611C745.966 596.672 781.315 517.967 780.499 447.396L762.501 447.604C763.261 513.399 729.769 588.73 711.995 619.638L727.599 628.611ZM728 627.125C728 627.613 727.865 628.15 727.599 628.611L711.995 619.638C710.669 621.945 710 624.509 710 627.125H728ZM364.712 421.135C354.82 422.95 349.81 433.831 354.549 442.515L370.349 433.892C371.404 435.824 370.287 438.413 367.96 438.839L364.712 421.135Z" fill="black"/>
<ellipse cx="379.436" cy="374.342" rx="20.434" ry="28.2839" transform="rotate(25.0427 379.436 374.342)" fill="black"/>
<ellipse cx="555.986" cy="477.275" rx="20.434" ry="28.2839" transform="rotate(25.0427 555.986 477.275)" fill="black"/>
<circle cx="796.902" cy="69.4024" r="10.0824" transform="rotate(25.0427 796.902 69.4024)" fill="#EC7AA1"/>
</svg>
